PathFileType	4	(X/Y/Z)	RBDS010\RBDS010runT35.trc
DataRate	CameraRate	NumFrames	NumMarkers	Units	OrigDataRate	OrigDataStartFrame	OrigNumFrames
150.000000	150.000000	6	32	mm	150.000000	3937	4500
Frame#	Time	L.ASIS			L.Heel.Bottom			L.Heel.Lateral			L.Heel.Top			L.Iliac.Crest			L.MT5			L.PSIS			L.Shank.Bottom.Lateral			L.Shank.Bottom.Medial			L.Shank.Top.Lateral			L.Shank.Top.Medial			L.Thigh.Bottom.Lateral			L.Thigh.Bottom.Medial			L.Thigh.Top.Lateral			L.Thigh.Top.Medial			R.ASIS			R.ASY			R.Heel.Bottom			R.Heel.Lateral			R.Heel.Top			R.Iliac.Crest			R.MT1			R.MT5			R.PSIS			R.Shank.Bottom.Lateral			R.Shank.Bottom.Medial			R.Shank.Top.Lateral			R.Shank.Top.Medial			R.Thigh.Bottom.Lateral			R.Thigh.Bottom.Medial			R.Thigh.Top.Lateral			R.Thigh.Top.Medial			
		X1	Y1	Z1	X2	Y2	Z2	X3	Y3	Z3	X4	Y4	Z4	X5	Y5	Z5	X6	Y6	Z6	X7	Y7	Z7	X8	Y8	Z8	X9	Y9	Z9	X10	Y10	Z10	X11	Y11	Z11	X12	Y12	Z12	X13	Y13	Z13	X14	Y14	Z14	X15	Y15	Z15	X16	Y16	Z16	X17	Y17	Z17	X18	Y18	Z18	X19	Y19	Z19	X20	Y20	Z20	X21	Y21	Z21	X22	Y22	Z22	X23	Y23	Z23	X24	Y24	Z24	X25	Y25	Z25	X26	Y26	Z26	X27	Y27	Z27	X28	Y28	Z28	X29	Y29	Z29	X30	Y30	Z30	X31	Y31	Z31	X32	Y32	Z32	

3938	26.24666666666667	2386.107975014661	946.490870824433	901.8705066075432	2081.797163774763	268.7476023608049	927.3825081622205	2117.613687637988	266.667895767146	885.2002429663173	2125.448469660435	293.7344862362627	938.0818258089812	2341.2299024425	1036.856173556674	868.8368098893935	2223.328521397244	147.9447837436195	850.6207766272422	2225.30396484466	1013.007968587733	973.801058216364	2223.423075223163	313.6463133148189	882.6828592943646	2200.071229975779	338.1623266903748	924.6251741079342	2275.917954278003	373.8020562269513	875.3673628611705	2252.799559468685	399.4958765820593	916.6948469659225	2443.524060694107	591.4507794724273	863.6014363635215	2396.046617391245	562.521962944647	910.1353112253726	2372.636847542506	674.4344410144255	846.1951060684752	2328.430100181351	648.5506671724524	891.3946426822631	2386.230369380827	932.2725492642443	1131.37380351142	2051.049103183052	95.4715775263205	1041.440098142109	1870.565158512047	128.6226567345408	1009.008397363078	1896.321039798363	130.8807079008287	1058.064606285549	1901.286096415866	166.2986715126363	1015.392333358721	2336.931313030037	1021.36481739326	1169.903918021573	2061.15084838947	42.49366465287772	986.9395251361406	2026.484389700959	45.39096615657618	1096.762188527121	2229.236855796491	1012.321078516775	1072.985233889715	2003.625291098857	221.9723967115873	1081.814914781292	1970.794352351426	249.8745095960647	1053.659362866905	2043.076713592347	293.6788310364092	1104.572528544523	2008.022508350875	319.4413269507154	1072.546624754579	2213.499860945903	576.4340860181424	1152.284570723059	2152.988982300869	589.3454858179092	1112.09384252275	2220.736685881569	684.2179143031142	1170.670888168115	2164.44145482365	697.7594162631115	1133.686003939424	
3939	26.25333333333333	2386.953770460583	952.7546720794958	901.7310151744457	2103.069789390111	248.264258332975	927.5739132369046	2139.072682839284	248.7303657767223	885.596645034526	2144.594931535657	276.658470578205	938.2762640592035	2341.213687560851	1043.433933834862	869.4432153639648	2253.663375698869	138.2605628314902	852.3586844266306	2226.840067085524	1018.562505892534	975.0599532762445	2241.59146090655	303.8696784979844	883.2860540664539	2216.412986189777	326.7229276391318	925.1700332811215	2289.85788236299	367.498201359676	875.9675356521703	2264.930415819195	391.5484403589313	917.2372000173357	2447.35180955383	598.9189330869705	864.7543814750329	2399.438599384225	569.1435785869868	910.2254366755589	2375.868587145331	681.3815218056976	847.1094926331316	2331.442562878678	654.8808886860409	891.6188942824799	2388.38116821729	935.3786612113209	1130.678270211363	2034.022587909279	97.03436194348227	1043.419589205542	1856.351882696246	141.6673089020308	1009.827128349324	1881.936765938227	141.6535376053404	1058.927937541999	1889.098280867617	177.2881027338102	1016.987561903716	2339.73949186843	1025.061500970235	1169.647319392058	2041.026471497963	44.00414570252997	987.7992561279638	2005.897672027761	47.53797930914546	1097.293451798919	2231.685290459563	1016.717407439303	1074.228511971517	1989.627989276194	229.8400577694252	1083.474790699679	1957.114129712448	257.2145693824062	1054.549104161934	2028.973373990654	301.7908834228981	1105.627778555574	1994.1585714363	327.1062206399957	1072.952055974368	2204.149971179872	583.6615617514781	1152.388508500769	2144.160438155031	598.7325694398604	1112.252587692499	2215.574565673596	691.0473243364089	1170.609493291607	2159.749670684328	706.5849557067684	1133.660789861123	
3940	26.26	2387.743877283991	958.7341569289858	901.3893958493518	2125.607835312506	227.8665869845133	928.0384921549149	2161.638500764431	230.7817185715921	886.2232843427653	2164.752163984259	259.5390789100631	938.6293098518311	2341.038568269804	1049.929010898056	869.9935560100467	2284.483434717233	129.1085238455557	854.6781360646552	2228.530410887517	1023.922098932729	976.3493018768671	2260.170425875802	293.9512562983784	884.0358390974941	2233.302609834983	315.0788052213838	925.81308623559	2303.921890347054	360.7741407340089	876.5432795289397	2277.334139347224	383.0924822130324	917.7400914737347	2450.410089300897	605.6288814443667	865.8148572352578	2401.900652101824	575.0182857338899	910.0347207934373	2378.583016292469	687.814911606541	848.047596434473	2333.788227462147	660.6836901256002	891.6808687306972	2390.728898482266	938.3738014775915	1129.731787255211	2017.636700067601	99.01280552320281	1045.53181150818	1843.465806526275	155.2995960470693	1010.8703383579	1868.715719579311	152.9821328540921	1059.988598044705	1878.19579278014	188.6915218182359	1018.823751180256	2343.154011017856	1028.711467887031	1169.299054253391	2021.554261842706	46.15414832048392	988.7772177392512	1985.843876481272	50.32357032469351	1097.919408824289	2234.315866242914	1021.018370432958	1075.510204290679	1976.772240060549	237.8073048942643	1085.405435379787	1944.553490182114	264.6355254986869	1055.716768056448	2015.986093232395	310.033308102343	1106.892567523099	1981.387050406982	334.8631839966863	1073.582327211308	2195.394672213387	591.1379409874814	1152.635123215869	2136.019856825133	608.2413483709903	1112.476201824162	2210.83924915153	698.0126457108851	1170.628707272063	2155.57768007034	715.4183747719561	1133.623761872428	
3941	26.26666666666667	2388.451858731215	964.2984709408486	900.904355199472	2149.352628945108	207.7780072844633	928.8624277777252	2185.256474542697	213.0022133676598	887.1474101889384	2185.890979023909	242.5574898130004	939.191614259231	2340.766840739881	1056.19522255238	870.4910570583562	2315.641060509187	120.5716580799489	857.5412148223724	2230.313275962672	1028.99297632317	977.6175247988128	2279.12216455919	283.9894151690755	884.9458109632179	2250.719623344163	303.3534020067578	926.5713157867052	2318.103726525119	353.6858245890722	877.084373390957	2290.015337626173	374.2129168376039	918.1983752184383	2452.683836191557	611.4572252502935	866.7454184049992	2403.461526563286	580.0413384934221	909.5924285859051	2380.73623454235	693.5930093795307	848.9884843371648	2335.455486075145	665.8277327025017	891.6090351137318	2393.169482094513	941.2506862109442	1128.603780893045	2001.841143705077	101.5562437435916	1047.715280581533	1831.775268759362	169.4102733355604	1012.214201181714	1856.54633575533	164.794467766752	1061.322136620575	1868.4058350284	200.4437378659214	1020.952108726579	2347.131943308026	1032.287788213216	1168.857942419676	2002.721462040855	49.09564484911794	989.8538285676112	1966.365182662391	53.85543792863751	1098.628538218513	2237.032102089491	1025.180059694653	1076.783902671465	1965.000797046879	245.8272061087829	1087.592394699802	1933.047987203654	272.1443869675807	1057.193863510923	2004.130911592121	318.3194523635962	1108.357332584392	1969.711088665173	342.677574579499	1074.478979080838	2187.323802021382	598.7183836921246	1152.990808452069	2128.620495612934	617.7065278447903	1112.745669804291	2206.55879282449	704.9980621179355	1170.712761809904	2151.927171888766	724.127974984004	1133.572426680603	
3942	26.27333333333333	2389.065771845561	969.3350161283187	900.3469554746554	2174.197842058814	188.2395727200371	930.1413338358948	2209.824268080914	195.5873860812886	888.4439296258099	2207.944087511308	225.9133144621117	940.0244942739023	2340.471025194787	1062.078804696862	870.9356942587424	2346.954160493736	112.7294262439721	860.8883208450247	2232.123272265125	1033.688273193564	978.8060864858918	2298.377997676057	274.1018987160504	886.0318717623788	2268.611410021639	291.6856662391285	927.4749736702836	2332.372301725258	346.3122600567472	877.5977878611573	2302.95050457656	365.0160367665478	918.6285553179622	2454.152757641622	616.3003075621579	867.5059015876137	2404.158599683674	584.1436403479524	908.9517996725147	2382.281570883708	698.5878576300905	849.8996297822899	2336.441804327258	670.2131812985446	891.4441015073369	2395.596688586326	944.0131595036401	1127.382663605509	1986.570715356123	104.8072085499543	1049.892458950471	1821.086576627101	183.8817044314308	1013.929345613429	1845.273944546551	177.0081854814063	1062.993051432372	1859.498545525103	212.4804563691127	1023.410145051307	2351.550545404801	1035.762526840488	1168.32986391945	1984.490398728972	52.96386372870961	990.9899090438398	1947.503182994971	58.22142680828491	1099.400121863098	2239.732229622328	1029.163605326647	1077.994098252491	1954.213013234222	253.8769405455606	1090.002907390157	1922.495650016655	279.7760777805471	1058.991872683843	1993.388470295203	326.5768631118783	1110.001237762577	1959.104932599956	350.5352632061514	1075.669836065316	2180.049792807977	606.2353766143646	1153.420091619143	2122.031243029334	626.9421007599196	1113.050485862394	2202.782338130907	711.8697848775013	1170.849226799191	2148.811843428459	732.5648923783525	1133.520088927093	
3943	26.28	2389.586762947428	973.7558144347096	899.7914435130879	2199.987281683991	169.5048525672463	931.9676331887257	2235.190704298998	178.7459231143016	890.1853618298329	2230.802670832611	209.8217886056613	941.192199258408	2340.22288700659	1067.428627363634	871.3229608552609	2378.210611480912	105.6547604190211	864.6405234984643	2233.895734459729	1037.930905222163	979.8553447780409	2317.837122070701	264.4214380502104	887.3101400641025	2286.892538719661	280.2258687780075	928.5635158415308	2346.668570002682	338.7529867999597	878.1075457554947	2316.087033044824	355.6260703847059	919.0678480379881	2454.794450250104	620.0787883075907	868.0565125601057	2404.038095315304	587.2932658925919	908.1873250256634	2383.172936540399	702.6916104459398	850.7388948620376	2336.754835159402	673.775310683273	891.236445522964	2397.912440306621	946.6715458023045	1126.165183036277	1971.751739239573	108.8872798404233	1051.976405640786	1811.161890886582	198.5934484326596	1016.071790450817	1834.714852440212	189.5339729175915	1065.045996797323	1851.2078269332	224.7397115132402	1026.21466599997	2356.216528986926	1039.111318614399	1167.726838882166	1966.803945288809	57.86513552255762	992.128368467599	1929.295663711129	63.48112502351366	1100.205644787482	2242.317149920628	1032.934437578827	1079.081394386997	1944.273316423628	261.9560582352439	1092.586770044452	1912.767806300404	287.5863723538882	1061.098053478822	1983.704890847393	334.7490519515593	1111.792582572937	1949.517909226969	358.4388016198953	1077.163164813046	2173.69773668184	613.5031883155094	1153.889619957867	2116.33049656619	635.7471574667733	1113.389723685378	2199.574751968169	718.4790229324883	1171.031257736338	2146.254778473745	740.5667697016048	1133.495234852576	
